<svg id="visual" viewBox="0 0 960 540" width="960" height="540" xmlns="http://www.w3.org/2000/svg" xmlns:xlink="http://www.w3.org/1999/xlink" version="1.1"><path d="M0 343L22.8 356.7C45.7 370.3 91.3 397.7 137 412C182.7 426.3 228.3 427.7 274 428C319.7 428.3 365.3 427.7 411.2 416.2C457 404.7 503 382.3 548.8 384C594.7 385.7 640.3 411.3 686 429.2C731.7 447 777.3 457 823 460.5C868.7 464 914.3 461 937.2 459.5L960 458L960 541L937.2 541C914.3 541 868.7 541 823 541C777.3 541 731.7 541 686 541C640.3 541 594.7 541 548.8 541C503 541 457 541 411.2 541C365.3 541 319.7 541 274 541C228.3 541 182.7 541 137 541C91.3 541 45.7 541 22.8 541L0 541Z" fill="#ffffff" stroke-linecap="round" stroke-linejoin="miter"></path></svg>